<svg width="192" height="192" viewBox="0 0 192 192" xmlns="http://www.w3.org/2000/svg">
  <!-- Rounded rectangle background -->
  <rect x="0" y="0" width="192" height="192" rx="28" fill="#2196f3"/>

  <!-- Vacuum icon (centered and scaled) -->
  <g transform="translate(36, 36) scale(5)">
    <path d="M4,2C2.89,2 2,2.89 2,4V6H1V8H2V10H1V12H2V14H1V16H2V20C2,21.11 2.89,22 4,22H10C11.11,22 12,21.11 12,20V4C12,2.89 11.11,2 10,2H4M7,4A2,2 0 0,1 9,6A2,2 0 0,1 7,8A2,2 0 0,1 5,6A2,2 0 0,1 7,4M7,10L8.5,11.5L9.92,10.08L11,11.15V20H3V11.15L4.08,10.08L5.5,11.5L7,10M22,11V9L15,12L22,15V13H14V11H22Z"
          fill="#ffffff"/>
  </g>
</svg>
